<svg width="21" height="21" viewBox="0 0 21 21" fill="none" xmlns="http://www.w3.org/2000/svg">
<path d="M1 8C1 4.31469 4.3353 1 8 1C11.6635 1 15 4.31469 15 8C15 11.6841 11.6635 15 8 15C4.3353 15 1 11.6841 1 8ZM20 18L14 13C15.0713 11.5998 16.0026 9.76468 16 8C16 3.56964 12.4041 0 8 0C3.59588 0 0 3.56964 0 8C0 12.4291 3.59588 16 8 16C9.78745 16.0019 11.5985 15.1123 13 14L18 20C18.0924 20.093 18.8791 19.9497 19 20C18.8691 20 19.1209 20.0503 19 20C18.8791 20.0503 19.1309 20 19 20C19.1209 19.9497 19.9076 20.093 20 20C20.1871 19.8115 20 19.2659 20 19C20 18.7341 20.1871 18.1885 20 18Z" fill="black"/>
</svg>
